<?xml version="1.0" encoding="utf-8"?>
<!-- Generator: Adobe Illustrator 22.1.0, SVG Export Plug-In . SVG Version: 6.00 Build 0)  -->
<svg version="1.1" id="Layer_1" xmlns="http://www.w3.org/2000/svg" xmlns:xlink="http://www.w3.org/1999/xlink" x="0px" y="0px"
	 viewBox="0 0 24 24" style="enable-background:new 0 0 24 24;" xml:space="preserve">
<style type="text/css">
	.st0{fill:#18BFFB;}
</style>
<g>
	<path class="st0" d="M20.5,9.9l-1.4,0.8c0.1,0.4,0.1,0.9,0.1,1.3c0,0.4-0.1,0.9-0.1,1.3l1.4,0.8c0.6,0.3,0.8,1.1,0.4,1.6l-1.2,2.1
		c-0.3,0.6-1.1,0.8-1.6,0.4l-1.4-0.8c-0.7,0.6-1.4,1-2.3,1.3v1c0,0.7-0.5,1.2-1.2,1.2h-2.4c-0.7,0-1.2-0.5-1.2-1.2v-1
		C8.7,18.5,8,18,7.3,17.5l-1.4,0.8c-0.6,0.3-1.3,0.1-1.6-0.4L3,15.8c-0.3-0.6-0.1-1.3,0.4-1.6l1.4-0.8c-0.1-0.4-0.1-0.9-0.1-1.3
		c0-0.4,0.1-0.9,0.1-1.3L3.5,9.9C2.9,9.5,2.7,8.8,3,8.2l1.2-2.1c0.3-0.6,1.1-0.8,1.6-0.4l1.4,0.8C8,6,8.7,5.5,9.6,5.2v-1
		c0-0.7,0.5-1.2,1.2-1.2h2.4c0.7,0,1.2,0.5,1.2,1.2v1C15.3,5.5,16,6,16.7,6.5l1.4-0.8c0.6-0.3,1.3-0.1,1.6,0.4L21,8.2
		C21.3,8.8,21.1,9.5,20.5,9.9z M19.6,8.3l-0.6-1c-0.2-0.3-0.5-0.4-0.8-0.2l-1.7,1c-0.9-1-2-1.6-3.3-1.9V4.8c0-0.3-0.3-0.6-0.6-0.6
		h-1.2c-0.3,0-0.6,0.3-0.6,0.6v1.3C9.5,6.4,8.3,7.1,7.5,8l-1.7-1C5.5,6.9,5.2,7,5,7.3l-0.6,1C4.2,8.6,4.3,9,4.6,9.1l1.7,1
		C6.1,10.7,6,11.3,6,12c0,0.7,0.1,1.3,0.3,1.9l-1.7,1c-0.3,0.2-0.4,0.5-0.2,0.8l0.6,1c0.2,0.3,0.5,0.4,0.8,0.2l1.7-1
		c0.9,1,2,1.6,3.3,1.9v1.3c0,0.3,0.3,0.6,0.6,0.6h1.2c0.3,0,0.6-0.3,0.6-0.6v-1.3c1.3-0.3,2.5-0.9,3.3-1.9l1.7,1
		c0.3,0.2,0.7,0.1,0.8-0.2l0.6-1c0.2-0.3,0.1-0.7-0.2-0.8l-1.7-1c0.2-0.6,0.3-1.2,0.3-1.9c0-0.7-0.1-1.3-0.3-1.9l1.7-1
		C19.7,9,19.8,8.6,19.6,8.3z M12,15c-1.7,0-3-1.3-3-3s1.4-3,3-3s3,1.3,3,3S13.7,15,12,15z M12,10.2c-1,0-1.8,0.8-1.8,1.8
		s0.8,1.8,1.8,1.8s1.8-0.8,1.8-1.8S13,10.2,12,10.2z"/>
</g>
</svg>
