<?xml version="1.0" encoding="utf-8"?>
<!-- Generator: Adobe Illustrator 22.1.0, SVG Export Plug-In . SVG Version: 6.00 Build 0)  -->
<svg version="1.1" id="Layer_1" xmlns="http://www.w3.org/2000/svg" xmlns:xlink="http://www.w3.org/1999/xlink" x="0px" y="0px"
	 viewBox="0 0 350 425" style="enable-background:new 0 0 350 425;" xml:space="preserve">
<style type="text/css">
	.st0{display:none;fill-rule:evenodd;clip-rule:evenodd;fill:#FFFFFF;}
	.st1{display:none;fill:#FDD106;}
	.st2{fill:#00C6F6;}
	.st3{fill:#FFFFFF;}
</style>
<path class="st0" d="M309.3,266.8c0-41.9,0-80.1,0-121.9c0-11.7-4.2-15.6-10.8-19.4c-36.9-20.6-67.9-37.9-104.9-58.5
	c-8.1-4.5-13.4-7.1-18.7-7.4c-5.3,0.3-10.6,2.9-18.7,7.4c-36.9,20.6-67.9,37.9-104.9,58.5c-6.6,3.8-10.8,7.7-10.8,19.4v5l119.8,70
	v104L40.5,253.7v21.2h0c0.2,8.8,1.8,11.3,12.4,17.5c37.7,22,73.5,42.8,111.2,64.8c3.2,1.8,6.9,2.9,10.8,3c3.8-0.1,7.6-1.2,10.8-3
	c37.7-22,73.5-42.8,111.2-64.8C310.2,284.6,309.3,282.6,309.3,266.8z M174.9,191L83,138.4L174.9,87l91.9,51.4L174.9,191z
	 M282.5,269.7l-93,54.2v-104l93-54.2V269.7z"/>
<rect x="8.5" y="16.2" class="st1" width="328.6" height="322"/>
<g>
	<path class="st2" d="M335,0H15C6.7,0,0,6.7,0,15V410c0,8.2,6.7,15,15,15h320c8.2,0,15-6.7,15-15V15C350,6.7,343.3,0,335,0z
		 M336.5,375H17V17h319.5V375z"/>
	<path class="st3" d="M334.3,2H15.7C8.2,2,2,8.1,2,15.6v393.8c0,7.5,6.1,13.6,13.6,13.6h318.7c7.5,0,13.6-6.1,13.6-13.6V15.6
		C348,8.1,341.8,2,334.3,2z M326.6,325.3H23.1V22.5h303.5V325.3z"/>
</g>
<g>
	<path class="st2" d="M25.3,391.8c-0.3-0.3-0.4-0.7-0.4-1.1v-13.4c0-0.4,0.1-0.8,0.4-1.1c0.3-0.3,0.6-0.5,1-0.5h12.2
		c3.4,0,5.1-1.6,5.1-4.7c0-3.1-1.7-4.7-5.1-4.7H26.3c-0.4,0-0.7-0.2-1-0.5c-0.3-0.3-0.4-0.7-0.4-1.1v-3.1c0-0.4,0.1-0.8,0.4-1.1
		c0.3-0.3,0.6-0.5,1-0.5h12.4c2.2,0,4.1,0.5,5.7,1.4c1.6,0.9,2.9,2.2,3.8,3.8c0.9,1.6,1.3,3.5,1.3,5.7c0,2.2-0.4,4.1-1.3,5.7
		c-0.9,1.6-2.2,2.9-3.8,3.8c-1.6,0.9-3.5,1.3-5.7,1.3h-7.9v8.8c0,0.4-0.1,0.8-0.4,1.1c-0.3,0.3-0.6,0.5-1,0.5h-3.1
		C25.9,392.3,25.6,392.1,25.3,391.8z"/>
	<path class="st2" d="M53.8,391.9c-0.3-0.3-0.4-0.6-0.4-1v-16.2c0-0.4,0.1-0.8,0.4-1c0.3-0.3,0.6-0.4,1-0.4h17.7v-11.4
		c0-0.4,0.1-0.8,0.4-1c0.3-0.3,0.6-0.4,1-0.4h3.1c0.4,0,0.7,0.1,1,0.4c0.3,0.3,0.4,0.6,0.4,1v29.1c0,0.4-0.1,0.8-0.4,1
		c-0.3,0.3-0.6,0.4-1,0.4H74c-0.4,0-0.8-0.1-1-0.4c-0.3-0.3-0.4-0.6-0.4-1v-11.4H59.4v11.4c0,0.4-0.1,0.8-0.4,1
		c-0.3,0.3-0.6,0.4-1,0.4h-3.1C54.5,392.3,54.1,392.2,53.8,391.9z M53.8,370.8c-0.3-0.3-0.4-0.7-0.4-1.1v-8c0-0.4,0.1-0.8,0.4-1
		c0.3-0.3,0.6-0.4,1-0.4H58c0.4,0,0.8,0.1,1,0.4c0.3,0.3,0.4,0.6,0.4,1v8c0,0.4-0.1,0.8-0.4,1.1c-0.3,0.3-0.6,0.5-1,0.5h-3.1
		C54.5,371.3,54.1,371.1,53.8,370.8z"/>
	<path class="st2" d="M89.3,389.5c-1.9-1.6-3.4-3.5-4.5-5.8c-1.1-2.3-1.6-4.8-1.6-7.5c0-2.7,0.5-5.2,1.6-7.5
		c1.1-2.3,2.6-4.3,4.5-5.8c1.9-1.6,4.1-2.6,6.6-3c0.5,0,0.9,0.1,1.2,0.3c0.3,0.3,0.5,0.8,0.5,1.3v3.3c0,0.3-0.1,0.7-0.3,0.9
		c-0.2,0.3-0.5,0.5-0.8,0.5c-2.2,0.6-3.9,1.7-5.2,3.5c-1.3,1.8-1.9,4-1.9,6.5c0,2.5,0.6,4.7,1.9,6.5c1.3,1.8,3,3,5.2,3.5
		c0.4,0.1,0.6,0.3,0.8,0.5c0.2,0.3,0.3,0.6,0.3,0.9v3.3c0,0.5-0.2,0.9-0.5,1.2c-0.3,0.3-0.7,0.4-1.2,0.4
		C93.5,392.1,91.3,391.1,89.3,389.5z M100.6,392.1c-0.3-0.3-0.5-0.7-0.5-1.2v-3.3c0-0.3,0.1-0.7,0.3-0.9c0.2-0.3,0.5-0.5,0.8-0.5
		c2.2-0.6,3.9-1.7,5.2-3.5c1.3-1.8,1.9-4,1.9-6.5c0-2.6-0.6-4.7-1.9-6.5c-1.3-1.8-3-3-5.2-3.5c-0.4-0.1-0.6-0.2-0.8-0.5
		c-0.2-0.3-0.3-0.6-0.3-1v-3.3c0-0.5,0.1-0.9,0.4-1.2c0.3-0.3,0.7-0.4,1.2-0.4c3.3,0.6,6,2.1,8.3,4.6c1.5,1.6,2.6,3.4,3.3,5.3
		c0.7,1.9,1.1,4.1,1.1,6.4c0,2.7-0.5,5.2-1.6,7.5c-1.1,2.3-2.6,4.3-4.5,5.8c-1.9,1.6-4.1,2.6-6.6,3
		C101.4,392.6,101,392.4,100.6,392.1z"/>
	<path class="st2" d="M116.1,366c-0.3-0.3-0.4-0.7-0.4-1.1v-3.1c0-0.4,0.1-0.8,0.4-1.1c0.3-0.3,0.6-0.5,1-0.5h4.2
		c0.4,0,0.8,0.2,1.1,0.5c0.3,0.3,0.4,0.7,0.4,1.1v3.1c0,0.4-0.1,0.8-0.4,1.1c-0.3,0.3-0.6,0.5-1.1,0.5h-4.2
		C116.7,366.5,116.3,366.3,116.1,366z M125.7,391.8c-0.3-0.3-0.4-0.7-0.4-1.1v-28.9c0-0.4,0.1-0.8,0.4-1.1c0.3-0.3,0.6-0.5,1.1-0.5
		h12.7c0.4,0,0.7,0.2,1,0.5c0.3,0.3,0.4,0.7,0.4,1.1v3.1c0,0.4-0.1,0.8-0.4,1.1c-0.3,0.3-0.6,0.5-1,0.5h-8.2v24.3
		c0,0.4-0.1,0.8-0.4,1.1c-0.3,0.3-0.6,0.5-1,0.5h-3.1C126.3,392.3,125.9,392.1,125.7,391.8z"/>
	<path class="st2" d="M148.1,389.5c-1.9-1.6-3.4-3.5-4.5-5.8c-1.1-2.3-1.6-4.8-1.6-7.5c0-2.7,0.5-5.2,1.6-7.5
		c1.1-2.3,2.6-4.3,4.5-5.8c1.9-1.6,4.1-2.6,6.6-3c0.5,0,0.9,0.1,1.2,0.3c0.3,0.3,0.5,0.8,0.5,1.3v3.3c0,0.3-0.1,0.7-0.3,0.9
		c-0.2,0.3-0.5,0.5-0.8,0.5c-2.2,0.6-3.9,1.7-5.2,3.5c-1.3,1.8-1.9,4-1.9,6.5c0,2.5,0.6,4.7,1.9,6.5c1.3,1.8,3,3,5.2,3.5
		c0.4,0.1,0.6,0.3,0.8,0.5c0.2,0.3,0.3,0.6,0.3,0.9v3.3c0,0.5-0.2,0.9-0.5,1.2c-0.3,0.3-0.7,0.4-1.2,0.4
		C152.2,392.1,150,391.1,148.1,389.5z M159.4,392.1c-0.3-0.3-0.5-0.7-0.5-1.2v-3.3c0-0.3,0.1-0.7,0.3-0.9c0.2-0.3,0.5-0.5,0.8-0.5
		c2.2-0.6,3.9-1.7,5.2-3.5c1.3-1.8,1.9-4,1.9-6.5c0-2.6-0.6-4.7-1.9-6.5c-1.3-1.8-3-3-5.2-3.5c-0.4-0.1-0.6-0.2-0.8-0.5
		c-0.2-0.3-0.3-0.6-0.3-1v-3.3c0-0.5,0.1-0.9,0.4-1.2c0.3-0.3,0.7-0.4,1.2-0.4c3.3,0.6,6,2.1,8.3,4.6c1.5,1.6,2.6,3.4,3.3,5.3
		c0.7,1.9,1.1,4.1,1.1,6.4c0,2.7-0.5,5.2-1.6,7.5c-1.1,2.3-2.6,4.3-4.5,5.8c-1.9,1.6-4.1,2.6-6.6,3
		C160.1,392.6,159.7,392.4,159.4,392.1z"/>
	<path class="st2" d="M178.4,391.8c-0.3-0.3-0.4-0.7-0.4-1.1v-3.1c0-0.4,0.1-0.8,0.4-1c0.3-0.3,0.6-0.4,1-0.4h13.4
		c3,0,4.5-1.1,4.5-3.3c0-1.1-0.4-2-1.3-2.7c-0.9-0.6-2.1-1-3.5-1h-13.1c-0.4,0-0.7-0.2-1-0.5c-0.3-0.3-0.4-0.7-0.4-1.1v-3
		c0-0.4,0.1-0.8,0.4-1.1c0.3-0.3,0.6-0.5,1-0.5h12.3c2.8,0,4.1-1.1,4.1-3.3c0-2.3-1.3-3.5-3.8-3.5h-12.7c-0.4,0-0.7-0.1-1-0.4
		c-0.3-0.3-0.4-0.6-0.4-1v-3.1c0-0.4,0.1-0.8,0.4-1.1c0.3-0.3,0.6-0.5,1-0.5h12.3c2,0,3.7,0.4,5.3,1.1c1.5,0.8,2.7,1.8,3.6,3.2
		c0.9,1.4,1.3,3,1.3,4.8c0,2.6-0.7,4.7-2.2,6.3c1.1,0.8,2,1.8,2.7,3.1c0.6,1.3,1,2.7,1,4.3c0,1.8-0.4,3.4-1.2,4.8
		c-0.8,1.4-2.1,2.4-3.7,3.2c-1.6,0.8-3.6,1.2-5.9,1.2h-13.1C179,392.3,178.6,392.1,178.4,391.8z"/>
	<path class="st2" d="M209.1,391.8c-0.3-0.3-0.4-0.7-0.4-1.1v-29c0-0.4,0.1-0.8,0.4-1.1c0.3-0.3,0.6-0.5,1-0.5h3.1
		c0.4,0,0.7,0.2,1,0.5c0.3,0.3,0.4,0.7,0.4,1.1v29c0,0.4-0.1,0.8-0.4,1.1c-0.3,0.3-0.6,0.5-1,0.5h-3.1
		C209.8,392.3,209.4,392.1,209.1,391.8z M217.7,391.8c-0.3-0.3-0.4-0.7-0.4-1.1v-3.1c0-0.4,0.1-0.8,0.4-1.1c0.3-0.3,0.6-0.5,1-0.5
		h9.6c0.4,0,0.8,0.2,1,0.5c0.3,0.3,0.4,0.7,0.4,1.1v3.1c0,0.4-0.1,0.8-0.4,1.1c-0.3,0.3-0.6,0.5-1,0.5h-9.6
		C218.3,392.3,217.9,392.1,217.7,391.8z"/>
	<path class="st2" d="M237,389.5c-1.9-1.6-3.4-3.5-4.5-5.8c-1.1-2.3-1.6-4.8-1.6-7.5c0-2.7,0.5-5.2,1.6-7.5c1.1-2.3,2.6-4.3,4.5-5.8
		c1.9-1.6,4.1-2.6,6.6-3c0.5,0,0.9,0.1,1.2,0.3c0.3,0.3,0.5,0.8,0.5,1.3v3.3c0,0.3-0.1,0.7-0.3,0.9c-0.2,0.3-0.5,0.5-0.8,0.5
		c-2.2,0.6-3.9,1.7-5.2,3.5c-1.3,1.8-1.9,4-1.9,6.5c0,2.5,0.6,4.7,1.9,6.5c1.3,1.8,3,3,5.2,3.5c0.4,0.1,0.6,0.3,0.8,0.5
		c0.2,0.3,0.3,0.6,0.3,0.9v3.3c0,0.5-0.2,0.9-0.5,1.2c-0.3,0.3-0.7,0.4-1.2,0.4C241.1,392.1,238.9,391.1,237,389.5z M248.3,392.1
		c-0.3-0.3-0.5-0.7-0.5-1.2v-3.3c0-0.3,0.1-0.7,0.3-0.9c0.2-0.3,0.5-0.5,0.8-0.5c2.2-0.6,3.9-1.7,5.2-3.5c1.3-1.8,1.9-4,1.9-6.5
		c0-2.6-0.6-4.7-1.9-6.5c-1.3-1.8-3-3-5.2-3.5c-0.4-0.1-0.6-0.2-0.8-0.5c-0.2-0.3-0.3-0.6-0.3-1v-3.3c0-0.5,0.1-0.9,0.4-1.2
		c0.3-0.3,0.7-0.4,1.2-0.4c3.3,0.6,6,2.1,8.3,4.6c1.5,1.6,2.6,3.4,3.3,5.3c0.7,1.9,1.1,4.1,1.1,6.4c0,2.7-0.5,5.2-1.6,7.5
		c-1.1,2.3-2.6,4.3-4.5,5.8c-1.9,1.6-4.1,2.6-6.6,3C249,392.6,248.6,392.4,248.3,392.1z"/>
	<path class="st2" d="M270.6,389.3c-1.7-1.5-3.1-3.4-4-5.7c-0.9-2.3-1.4-4.7-1.4-7.4c0-2.7,0.5-5.2,1.4-7.4c0.9-2.3,2.3-4.2,4-5.7
		c1.7-1.5,3.7-2.5,6-3c0.1,0,0.2,0,0.3,0c0.3,0,0.6,0.1,0.9,0.3c0.4,0.3,0.5,0.7,0.5,1.2v3.4c0,0.3-0.1,0.6-0.3,0.9
		c-0.2,0.3-0.5,0.5-0.8,0.6c-2,0.6-3.5,1.7-4.5,3.5c-1,1.8-1.6,3.9-1.6,6.3c0,2.5,0.5,4.6,1.6,6.3c1,1.7,2.6,2.9,4.5,3.5
		c0.3,0.1,0.6,0.3,0.8,0.6c0.2,0.3,0.3,0.6,0.3,0.9v3.4c0,0.6-0.2,0.9-0.5,1.2c-0.3,0.2-0.8,0.3-1.3,0.3
		C274.4,391.9,272.4,390.9,270.6,389.3z M288.6,371.6c-0.2-0.2-0.4-0.4-0.5-0.7c-0.6-1.3-1.4-2.4-2.3-3.2c-1-0.8-2.1-1.4-3.5-1.6
		c-0.4-0.1-0.7-0.2-0.9-0.5c-0.2-0.3-0.4-0.6-0.4-1v-3.2c0-0.5,0.2-0.8,0.5-1.1c0.3-0.3,0.7-0.4,1.2-0.4c2.7,0.5,5.1,1.6,7.1,3.3
		c2,1.7,3.5,4,4.3,6.6c0.1,0.2,0.1,0.4,0.1,0.5c0,0.5-0.1,0.8-0.4,1.1c-0.3,0.3-0.6,0.4-1,0.4h-3.3
		C289.1,371.8,288.8,371.7,288.6,371.6z M281.5,392.2c-0.3-0.3-0.5-0.6-0.5-1.1v-3.2c0-0.4,0.1-0.7,0.3-1c0.2-0.3,0.5-0.5,0.9-0.5
		c1.4-0.3,2.5-0.8,3.5-1.6c1-0.8,1.8-1.9,2.3-3.2c0.1-0.3,0.3-0.5,0.5-0.7c0.2-0.2,0.5-0.2,0.8-0.2h3.3c0.4,0,0.7,0.1,1,0.4
		c0.3,0.3,0.4,0.6,0.4,1.1c0,0.1,0,0.3-0.1,0.5c-0.9,2.7-2.3,4.9-4.3,6.7c-2,1.7-4.4,2.8-7.1,3.3
		C282.2,392.6,281.8,392.4,281.5,392.2z"/>
	<path class="st2" d="M299,391.8c-0.3-0.3-0.4-0.7-0.4-1.1v-12c0-0.4,0.2-0.8,0.5-1l17.1-17c0.3-0.3,0.6-0.4,1-0.4h4.4
		c0.4,0,0.7,0.2,1,0.5c0.3,0.3,0.4,0.7,0.4,1.1c0,0.4-0.2,0.8-0.5,1.1l-9.6,9.5l11.6,17.5c0.2,0.3,0.3,0.6,0.3,0.9
		c0,0.4-0.1,0.8-0.4,1.1c-0.3,0.3-0.6,0.4-1,0.4h-3.9c-0.5,0-0.9-0.2-1.2-0.7l-9.8-14.9l-4,4v10c0,0.4-0.1,0.8-0.4,1.1
		c-0.3,0.3-0.6,0.5-1,0.5H300C299.6,392.3,299.3,392.1,299,391.8z M299,370.9c-0.3-0.3-0.4-0.7-0.4-1.1v-8c0-0.4,0.1-0.8,0.4-1.1
		c0.3-0.3,0.6-0.5,1-0.5h3.1c0.4,0,0.7,0.2,1,0.5c0.3,0.3,0.4,0.7,0.4,1.1v8c0,0.4-0.1,0.8-0.4,1.1c-0.3,0.3-0.6,0.4-1,0.4H300
		C299.6,371.3,299.3,371.2,299,370.9z"/>
</g>
</svg>
