<?xml version="1.0" encoding="utf-8"?>
<!-- Generator: Adobe Illustrator 22.1.0, SVG Export Plug-In . SVG Version: 6.00 Build 0)  -->
<svg version="1.1" id="Layer_1" xmlns="http://www.w3.org/2000/svg" xmlns:xlink="http://www.w3.org/1999/xlink" x="0px" y="0px"
	 viewBox="0 0 512 512" style="enable-background:new 0 0 512 512;" xml:space="preserve">
<style type="text/css">
	.st0{fill:#E54429;}
	.st1{fill:#979A9B;}
	.st2{fill:#FFFFFF;}
</style>
<path class="st0" d="M368,512H144c-26.5,0-48-23.2-48-51.9V97h320v363.1C416,488.8,394.5,512,368,512z"/>
<path class="st1" d="M448,107H64V36.8C64,17.4,78.3,1.7,96,1.7h320c17.7,0,32,15.7,32,35.1V107z"/>
<path class="st2" d="M324,260c-6.2-6.2-16.4-6.2-22.6,0L260,301.4L218.6,260c-6.2-6.2-16.4-6.2-22.6,0s-6.2,16.4,0,22.6l41.4,41.4
	L196,365.4c-6.2,6.2-6.2,16.4,0,22.6s16.4,6.2,22.6,0l41.4-41.4l41.4,41.4c6.2,6.2,16.4,6.2,22.6,0s6.2-16.4,0-22.6L282.6,324
	l41.4-41.4C330.2,276.4,330.2,266.2,324,260z"/>
</svg>
