<?xml version="1.0" encoding="utf-8"?>
<!-- Generator: Adobe Illustrator 22.1.0, SVG Export Plug-In . SVG Version: 6.00 Build 0)  -->
<svg version="1.1" id="Layer_1" xmlns="http://www.w3.org/2000/svg" xmlns:xlink="http://www.w3.org/1999/xlink" x="0px" y="0px"
	 viewBox="0 0 24 24" style="enable-background:new 0 0 24 24;" xml:space="preserve">
<style type="text/css">
	.st0{fill:#18BFFB;}
</style>
<g>
	<path class="st0" d="M12,4.3c2.6,0,4.6,2.1,4.6,4.6s-2.1,4.6-4.6,4.6s-4.6-2.1-4.6-4.6S9.4,4.3,12,4.3 M12,3C8.8,3,6.1,5.6,6.1,8.9
		s2.6,5.9,5.9,5.9s5.9-2.6,5.9-5.9S15.2,3,12,3L12,3z"/>
	<path class="st0" d="M20,21c-0.2,0-0.4-0.1-0.5-0.3c-1.7-2.4-4.5-3.9-7.5-3.9s-5.8,1.4-7.5,3.9c-0.2,0.3-0.6,0.3-0.9,0.2
		c-0.3-0.2-0.3-0.6-0.2-0.9c2-2.8,5.2-4.4,8.5-4.4s6.6,1.6,8.5,4.4c0.2,0.3,0.1,0.7-0.2,0.9C20.2,21,20.1,21,20,21z"/>
</g>
</svg>
