<?xml version="1.0" encoding="UTF-8"?>
<svg xmlns="http://www.w3.org/2000/svg" xmlns:xlink="http://www.w3.org/1999/xlink" viewBox="0 0 24 24" version="1.1" fill="#000000"><g id="surface1" fill="#000000"><path style=" " d="M 12 2 C 6.488281 2 2 6.488281 2 12 C 2 17.511719 6.488281 22 12 22 C 17.511719 22 22 17.511719 22 12 C 22 6.488281 17.511719 2 12 2 Z M 12 4.03125 C 16.414063 4.03125 19.96875 7.585938 19.96875 12 C 19.96875 16.414063 16.414063 19.96875 12 19.96875 C 7.585938 19.96875 4.03125 16.414063 4.03125 12 C 4.03125 7.585938 7.585938 4.03125 12 4.03125 Z M 11.4375 5.34375 C 11.25 5.359375 11.125 5.574219 11.25 5.84375 C 11.707031 6.832031 13.308594 10.21875 14.65625 12.5 L 15.875 11.90625 C 14.597656 9.632813 12.398438 6.453125 11.78125 5.5625 C 11.664063 5.386719 11.550781 5.332031 11.4375 5.34375 Z M 11.09375 7.40625 C 10.859375 7.4375 10.628906 7.574219 10.5 7.78125 L 11.9375 8.5625 C 12.167969 8.195313 12.019531 7.710938 11.625 7.5 C 11.523438 7.445313 11.449219 7.417969 11.34375 7.40625 C 11.261719 7.398438 11.171875 7.394531 11.09375 7.40625 Z M 10.375 7.96875 L 9.625 9.1875 L 11.09375 9.9375 L 11.8125 8.75 Z M 9.53125 9.3125 L 6.5 14.1875 L 7.9375 14.9375 L 10.96875 10.09375 Z M 5 11 L 5 13 L 6.875 13 L 8.15625 11.03125 Z M 10.78125 11 L 9.5625 13 L 14.5625 13 C 14.5625 13 13.742188 11.574219 13.4375 11 Z M 19 11 L 15.75 11.03125 C 15.90625 11.292969 16.84375 13.03125 16.84375 13.03125 L 19 13 Z M 15.96875 12.0625 L 14.71875 12.6875 L 15.6875 14.03125 L 16.65625 13.53125 Z M 16.75 13.75 L 15.84375 14.1875 L 16.8125 16.3125 C 16.984375 16.6875 17.453125 16.878906 17.84375 16.6875 C 18.234375 16.496094 18.335938 16.027344 18.09375 15.6875 Z M 6.375 14.34375 L 5.96875 16.6875 L 7.84375 15.15625 Z " fill="#000000"/></g></svg>
